<?xml version="1.0" encoding="UTF-8" standalone="no"?>
<!-- Created with Inkscape (http://www.inkscape.org/) -->

<svg
   width="305"
   height="155"
   viewBox="0 0 305 155"
   version="1.1"
   id="SVGRoot"
   sodipodi:docname="ui_buttons.svg"
   inkscape:export-filename="../../../../../../../home/acidzz/Friends_At_3AM/UI/Buttons/panel.svg"
   inkscape:export-xdpi="96"
   inkscape:export-ydpi="96"
   inkscape:version="1.2.2 (b0a8486541, 2022-12-01)"
   xmlns:inkscape="http://www.inkscape.org/namespaces/inkscape"
   xmlns:sodipodi="http://sodipodi.sourceforge.net/DTD/sodipodi-0.dtd"
   xmlns="http://www.w3.org/2000/svg"
   xmlns:svg="http://www.w3.org/2000/svg">
  <path
     id="rect290"
     d="M 1.0778828,1.1957382 94.889733,4.475903 207.56856,1.5120533 l 94.3746,-0.2117063 -6.53897,22.607217 -8.42796,7.364038 8.42796,8.965173 v 43.999587 l -7.7379,18.164798 7.7379,5.57781 7.97179,45.31562 -76.58964,-4.68809 -48.65889,2.30357 L 84.428339,149.25288 3.3226638,154.26686 9.757322,107.16556 3.3449992,99.970199 9.279737,95.942006 3.3791692,75.143722 8.0772315,51.359354 Z"
     style="fill:#706f74;fill-opacity:1;stroke-width:1.64208"
     sodipodi:nodetypes="ccccccccccccccccccccc" />
  <sodipodi:namedview
     id="namedview141"
     pagecolor="#ffffff"
     bordercolor="#000000"
     borderopacity="0.25"
     inkscape:showpageshadow="2"
     inkscape:pageopacity="0"
     inkscape:pagecheckerboard="true"
     inkscape:deskcolor="#d1d1d1"
     inkscape:document-units="px"
     showgrid="false"
     inkscape:zoom="2.9897026"
     inkscape:cx="98.672022"
     inkscape:cy="66.896286"
     inkscape:window-width="2560"
     inkscape:window-height="1011"
     inkscape:window-x="0"
     inkscape:window-y="32"
     inkscape:window-maximized="1"
     inkscape:current-layer="layer1" />
  <defs
     id="defs136" />
  <g
     inkscape:label="Button_1_highlight"
     inkscape:groupmode="layer"
     id="layer1"
     style="display:none"
     transform="translate(3.0438118,2.4999999)">
    <path
       id="rect253"
       style="display:inline;fill:#3a389d;fill-opacity:1;stroke:#292842;stroke-width:7.66004;stroke-opacity:1"
       d="M 4.718875,4.1520722 181.3714,15.049288 213.845,8.9529129 l 28.02231,8.5898471 51.9834,-11.4093794 -7.81734,67.7423804 8.5201,68.787789 -88.91478,-6.15097 -66.40542,6.15704 -49.746954,-6.6445 -84.767441,9.59889 5.508915,-44.10767 1.556867,-62.054484 z"
       sodipodi:nodetypes="cccccccccccccc"
       inkscape:label="rect253" />
    <path
       id="path19676"
       style="display:inline;fill:none;fill-opacity:1;stroke:#3a389d;stroke-width:7.66;stroke-dasharray:none;stroke-opacity:1"
       d="m 8.7184433,9.0765682 60.3948417,4.7799378 50.546055,4.097998 57.58122,2.526719 36.54177,-6.177679 31.65922,7.720398 43.67085,-10.440141 -8.88252,60.283663 6.73149,33.387036 2.38118,32.11712 -84.89831,-6.34781 -64.59284,5.44729 -53.231919,-3.80688 -77.0963551,6.87198 6.2090721,-33.90609 -1.052295,-33.894393 2.477811,-29.188104 z"
       sodipodi:nodetypes="cccccccccccccccccc"
       inkscape:label="path19676" />
  </g>
  <g
     inkscape:label="Button_1"
     inkscape:groupmode="layer"
     id="g10346"
     style="display:none"
     transform="translate(3.0438118,2.4999999)">
    <path
       id="path10344"
       style="fill:#403e87;fill-opacity:1;stroke:#292842;stroke-width:7.66004;stroke-opacity:1"
       d="M 4.718875,4.1520722 181.3714,15.049288 213.845,8.9529129 l 28.02231,8.5898471 51.9834,-11.4093794 -7.81734,67.7423804 8.5201,68.787789 -88.91478,-6.15097 -66.40542,6.15704 -49.746954,-6.6445 -84.767441,9.59889 5.508915,-44.10767 0.702373,-27.995585 0.854494,-34.058899 z"
       sodipodi:nodetypes="ccccccccccccccc"
       inkscape:label="path10344" />
    <path
       id="path19963"
       style="fill:none;fill-opacity:1;stroke:#403e87;stroke-width:7.66;stroke-dasharray:none;stroke-opacity:1"
       d="m 8.7184433,9.0765682 60.3948417,4.7799378 50.546055,4.097998 57.58122,2.526719 36.54177,-6.177679 31.65922,7.720398 43.67085,-10.440141 -8.88252,60.283663 6.73149,33.387036 2.38118,32.11712 -84.89831,-6.34781 -64.59284,5.44729 -53.231919,-3.80688 -77.0963551,6.87198 6.2090721,-33.90609 -1.052295,-33.894393 2.477811,-29.188104 z"
       sodipodi:nodetypes="cccccccccccccccccc"
       inkscape:label="path19676" />
  </g>
  <g
     inkscape:label="Button_2"
     inkscape:groupmode="layer"
     id="g11910"
     style="display:none"
     transform="translate(2.8162867,2.4777167)">
    <path
       id="path11908"
       style="fill:#403e87;fill-opacity:1;stroke:#292842;stroke-width:7.66004;stroke-opacity:1"
       d="m 4.718875,4.1520722 85.581605,13.0890148 74.12689,-9.4665964 75.07844,6.4708084 52.92429,-6.0812972 -1.16284,24.1419242 -5.8252,6.830307 6.3595,9.320433 0.73958,10.04038 -3.16936,53.970794 5.18169,30.19571 -64.98147,-0.12322 -50.40273,-1.59275 -8.08828,-6.52788 -18.29202,7.24386 -63.111773,2.31099 -54.71627,-5.07426 L 4.718875,145.62401 8.3508233,63.915056 7.9863852,46.146517 18.502806,35.026649 7.5344776,25.968938 Z"
       sodipodi:nodetypes="ccccccccccccccccccccccc" />
    <path
       id="path19966"
       style="fill:none;fill-opacity:1;stroke:#403e87;stroke-width:7.66004;stroke-opacity:1"
       d="M 9.4615334,8.3288846 91.35094,23.405608 l 73.99135,-12.195282 73.82144,7.179764 48.17459,-5.943771 1.67976,13.818689 -12.7351,14.855238 14.49901,9.705942 -0.53461,14.264985 -5.55107,47.046387 5.09051,27.89136 -59.54586,-3.48711 -44.74096,0.55772 -15.00541,-7.94179 c 0,0 -6.334,5.32912 -19.94516,8.02301 -13.61116,2.69388 -59.318417,1.61981 -59.318417,1.61981 0,0 -42.056323,-5.2333 -55.779143,-4.91488 -13.72282,0.31842 -26.4846684,6.211 -26.4846684,6.211 C 10.177851,112.86036 13.262213,67.881409 13.262213,67.881409 L 12.95016,47.52117 25.895246,36.88758 10.922409,24.969679 Z"
       sodipodi:nodetypes="cccccccccccccczczcccccc" />
  </g>
  <g
     inkscape:label="Button_2 highlight"
     inkscape:groupmode="layer"
     id="g11914"
     style="display:none"
     transform="translate(2.8162867,2.4777167)">
    <path
       id="path11912"
       style="fill:#3a389d;fill-opacity:1;stroke:#292842;stroke-width:7.66004;stroke-opacity:1"
       d="m 4.718875,4.1520722 85.581605,13.0890148 74.12689,-9.4665964 75.07844,6.4708084 52.92429,-6.0812972 -1.16284,24.1419242 -5.8252,6.830307 6.3595,9.320433 0.73958,10.04038 -3.16936,53.970794 5.18169,30.19571 -64.98147,-0.12322 -50.40273,-1.59275 -8.08828,-6.52788 -18.29202,7.24386 -63.111773,2.31099 -54.71627,-5.07426 L 4.718875,145.62401 8.3508233,63.915056 7.9863852,46.146517 18.502806,35.026649 7.5344776,25.968938 Z"
       sodipodi:nodetypes="ccccccccccccccccccccccc" />
    <path
       id="path19968"
       style="display:inline;fill:none;fill-opacity:1;stroke:#3a389d;stroke-width:7.66004;stroke-opacity:1"
       d="M 9.4615334,8.3288846 91.35094,23.405608 l 73.99135,-12.195282 73.82144,7.179764 48.17459,-5.943771 1.67976,13.818689 -12.7351,14.855238 14.49901,9.705942 -0.53461,14.264985 -5.55107,47.046387 5.09051,27.89136 -59.54586,-3.48711 -44.74096,0.55772 -15.00541,-7.94179 c 0,0 -6.334,5.32912 -19.94516,8.02301 -13.61116,2.69388 -59.318417,1.61981 -59.318417,1.61981 0,0 -42.056323,-5.2333 -55.779143,-4.91488 -13.72282,0.31842 -26.4846684,6.211 -26.4846684,6.211 C 10.177851,112.86036 13.262213,67.881409 13.262213,67.881409 L 12.95016,47.52117 25.895246,36.88758 10.922409,24.969679 Z"
       sodipodi:nodetypes="cccccccccccccczczcccccc" />
  </g>
  <g
     inkscape:label="Button_3"
     inkscape:groupmode="layer"
     id="g13370"
     style="display:none"
     transform="translate(3.0406658,1.4930067)">
    <path
       id="path13368"
       style="fill:#403e87;fill-opacity:1;stroke:#292842;stroke-width:7.66004;stroke-opacity:1"
       d="m 4.718875,4.1520722 85.179774,5.1327092 67.604081,-2.6922855 82.00308,7.6528031 52.92429,-6.0812972 -0.009,50.1042282 -5.8252,6.830307 6.3595,9.320433 -5.50107,16.523188 6.48694,14.284702 -4.56955,7.24098 5.18169,30.19571 -47.26179,-10.21356 -33.34287,12.51149 -22.07791,-3.15014 -73.64539,-3.97266 -32.152093,5.54861 -61.70939,-6.1611 -19.645092,8.39782 7.283684,-38.78584 L 11.731336,70.920763 22.247757,59.800895 11.582756,56.39797 Z"
       sodipodi:nodetypes="cccccccccccccccccccccccc" />
    <path
       id="path20835"
       style="fill:#403e87;fill-opacity:1;stroke:#403e87;stroke-width:7.66004;stroke-opacity:1"
       d="m 8.9192464,7.3629633 80.6815456,6.4029277 67.334148,-2.100787 82.89976,7.046984 49.81384,-7.180182 -1.56113,20.964196 3.03059,21.565367 -8.51375,7.145965 7.18983,13.541832 -7.60942,15.189774 7.89056,15.28363 -5.3343,8.98995 5.83591,25.47896 -46.55069,-12.75057 -29.70926,13.2741 -22.53027,-2.62972 -72.51966,-6.40176 -34.121297,8.88502 -59.667959,-7.25437 -18.5660099,9.30896 9.0031279,-37.66502 -1.72278,-30.950166 11.57566,-11.380692 -12.915299,-8.949756 z"
       sodipodi:nodetypes="ccccccccccccccccccccccccc" />
  </g>
  <g
     inkscape:label="Button_3 highlight"
     inkscape:groupmode="layer"
     id="g13376"
     style="display:none"
     transform="translate(3.0406658,1.4930067)">
    <path
       id="path13374"
       style="fill:#3a389d;fill-opacity:1;stroke:#292842;stroke-width:7.66004;stroke-opacity:1"
       d="m 4.718875,4.1520722 85.179774,5.1327092 67.604081,-2.6922855 82.00308,7.6528031 52.92429,-6.0812972 -0.009,50.1042282 -5.8252,6.830307 6.3595,9.320433 -5.50107,16.523188 6.48694,14.284702 -4.56955,7.24098 5.18169,30.19571 -47.26179,-10.21356 -33.34287,12.51149 -22.07791,-3.15014 -73.64539,-3.97266 -32.152093,5.54861 -61.70939,-6.1611 -19.645092,8.39782 7.283684,-38.78584 L 11.731336,70.920763 22.247757,59.800895 11.582756,56.39797 Z"
       sodipodi:nodetypes="cccccccccccccccccccccccc" />
    <path
       id="path21563"
       style="display:inline;fill:#3a389d;fill-opacity:1;stroke:#3a389d;stroke-width:7.66004;stroke-opacity:1"
       d="m 8.9192464,7.3629633 80.6815456,6.4029277 67.334148,-2.100787 82.89976,7.046984 49.81384,-7.180182 -1.56113,20.964196 3.03059,21.565367 -8.51375,7.145965 7.18983,13.541832 -7.60942,15.189774 7.89056,15.28363 -5.3343,8.98995 5.83591,25.47896 -46.55069,-12.75057 -29.70926,13.2741 -22.53027,-2.62972 -72.51966,-6.40176 -34.121297,8.88502 -59.667959,-7.25437 -18.5660099,9.30896 9.0031279,-37.66502 -1.72278,-30.950166 11.57566,-11.380692 -12.915299,-8.949756 z"
       sodipodi:nodetypes="ccccccccccccccccccccccccc" />
  </g>
  <g
     inkscape:label="Button_4"
     inkscape:groupmode="layer"
     id="g17144"
     style="display:none"
     transform="translate(3.543034,2.0081629)">
    <path
       id="path17142"
       style="fill:#403e87;fill-opacity:1;stroke:#292842;stroke-width:7.66004;stroke-opacity:1"
       d="m 4.718875,4.1520722 41.725808,10.8144788 42.605391,-7.3513084 66.254686,5.8253744 59.88365,-7.2757169 77.24169,1.9991017 -3.10271,17.0627542 2.32836,36.366473 -4.20142,29.348929 6.48694,14.284702 -4.56955,7.24098 2.16915,31.0954 -46.65342,-2.89751 -55.10743,3.68773 -22.07791,-3.15014 -28.17907,1.25902 -53.449683,0.92495 -61.70939,-6.1611 -19.645092,8.39782 7.283684,-38.78584 -0.419803,-50.4402 z"
       sodipodi:nodetypes="cccccccccccccccccccccc" />
    <path
       id="path24470"
       style="fill:none;fill-opacity:1;stroke:#403e87;stroke-width:7.66004;stroke-opacity:1"
       d="m 7.5957338,10.114004 40.0210432,8.930101 44.510857,-7.729907 63.202196,4.637786 60.60226,-4.84744 71.91375,0.703313 -1.67553,15.360204 2.09155,33.513183 -5.46728,28.672046 7.36087,13.909 -3.89549,12.57937 1.95014,25.39164 -41.64359,-4.68461 -52.02168,3.12203 -27.42022,-1.98821 -28.23893,0.76724 -53.672698,0.52277 -57.963296,-5.72089 -19.1306513,7.415 9.0920963,-34.2739 -2.273598,-50.899701 z"
       sodipodi:nodetypes="cccccccccccccccccccccc" />
  </g>
  <g
     inkscape:label="Button_4 highlight"
     inkscape:groupmode="layer"
     id="g17152"
     style="display:none"
     transform="translate(3.543034,2.0081629)">
    <path
       id="path17150"
       style="fill:#3a389d;fill-opacity:1;stroke:#292842;stroke-width:7.66004;stroke-opacity:1"
       d="m 4.718875,4.1520722 41.725808,10.8144788 42.605391,-7.3513084 66.254686,5.8253744 59.88365,-7.2757169 77.24169,1.9991017 -3.10271,17.0627542 2.32836,36.366473 -4.20142,29.348929 6.48694,14.284702 -4.56955,7.24098 2.16915,31.0954 -46.65342,-2.89751 -55.10743,3.68773 -22.07791,-3.15014 -28.17907,1.25902 -53.449683,0.92495 -61.70939,-6.1611 -19.645092,8.39782 7.283684,-38.78584 -0.419803,-50.4402 z"
       sodipodi:nodetypes="cccccccccccccccccccccc" />
    <path
       id="path25924"
       style="display:inline;fill:none;fill-opacity:1;stroke:#3a389d;stroke-width:7.66004;stroke-opacity:1"
       d="m 7.5957338,10.114004 40.0210432,8.930101 44.510857,-7.729907 63.202196,4.637786 60.60226,-4.84744 71.91375,0.703313 -1.67553,15.360204 2.09155,33.513183 -5.46728,28.672046 7.36087,13.909 -3.89549,12.57937 1.95014,25.39164 -41.64359,-4.68461 -52.02168,3.12203 -27.42022,-1.98821 -28.23893,0.76724 -53.672698,0.52277 -57.963296,-5.72089 -19.1306513,7.415 9.0920963,-34.2739 -2.273598,-50.899701 z"
       sodipodi:nodetypes="cccccccccccccccccccccc" />
  </g>
</svg>
